<?xml version="1.0" encoding="utf-8"?>
<!-- Generator: Adobe Illustrator 21.1.0, SVG Export Plug-In . SVG Version: 6.00 Build 0)  -->
<svg version="1.1" id="Layer_1" xmlns="http://www.w3.org/2000/svg" xmlns:xlink="http://www.w3.org/1999/xlink" x="0px" y="0px"
	 viewBox="0 0 73.7 81.6" style="enable-background:new 0 0 73.7 81.6;" xml:space="preserve">
<style type="text/css">
	.st0{clip-path:url(#SVGID_2_);fill:#FFFFFF;}
	.st1{clip-path:url(#SVGID_2_);}
	.st2{fill:#08083B;}
	.st3{fill:#FFFFFF;}
	.st4{fill:none;stroke:#FFFFFF;stroke-width:0.607;}
	.st5{fill:none;stroke:#FFFFFF;stroke-width:0.405;stroke-linecap:round;}
	.st6{fill:#08083B;stroke:#FFFFFF;stroke-width:0.5;}
</style>
<g>
	<defs>
		<rect id="SVGID_1_" y="7.7" width="73.7" height="73.9"/>
	</defs>
	<clipPath id="SVGID_2_">
		<use xlink:href="#SVGID_1_"  style="overflow:visible;"/>
	</clipPath>
	<path class="st0" d="M2.2,43.1c0,0,1.3-1.1,3.1,0.4c2.8,2.7,4.5,1,4.5,1l0.8-0.8l26.3,26.3l26.3-26.3l0.8,0.8c0,0,1.7,1.7,4.5-1
		c1.8-1.6,3.1-0.4,3.1-0.4l1.6,1.6L36.9,81L0.6,44.7L2.2,43.1z"/>
	<g class="st1">
		<path class="st2" d="M0.2,44.7L2,42.9c0,0,0.5-0.5,1.4-0.5c0.7,0,1.4,0.3,2,0.9c1,1,2,1.5,2.9,1.5c0.8,0,1.3-0.4,1.3-0.4l1-1
			l26.3,26.3l26.3-26.3l1,1c0,0,0.5,0.4,1.3,0.4c0.9,0,1.9-0.5,2.9-1.4c0.7-0.6,1.4-0.9,2.1-0.9c0.8,0,1.3,0.5,1.4,0.5l1.8,1.8
			L36.9,81.3L0.2,44.7z"/>
		<path class="st3" d="M3.4,42.7c0.5,0,1.2,0.2,1.9,0.8c1.2,1.2,2.3,1.5,3,1.5c0.9,0,1.5-0.5,1.5-0.5l0.8-0.8l26.3,26.3l26.3-26.3
			l0.8,0.8c0,0,0.5,0.5,1.5,0.5c0.8,0,1.8-0.3,3-1.5c0.7-0.6,1.4-0.8,1.9-0.8c0.7,0,1.2,0.4,1.2,0.4l1.6,1.6L36.9,81L0.6,44.7
			l1.6-1.6C2.2,43.1,2.6,42.7,3.4,42.7 M3.4,42.2L3.4,42.2c-0.9,0-1.5,0.5-1.5,0.5l-1.6,1.6l-0.4,0.4L0.2,45l36.3,36.3l0.4,0.4
			l0.4-0.4L73.5,45l0.4-0.4l-0.4-0.4l-1.6-1.6c-0.1-0.1-0.6-0.6-1.5-0.6c-0.7,0-1.5,0.3-2.2,0.9c-1,0.9-1.9,1.4-2.7,1.4
			c-0.7,0-1.1-0.4-1.1-0.4l-0.8-0.8L63.2,43l-0.4,0.4l-26,26l-26-26L10.5,43l-0.4,0.4l-0.8,0.8c0,0-0.4,0.4-1.1,0.4
			c-0.8,0-1.7-0.5-2.7-1.4C4.8,42.5,4.1,42.2,3.4,42.2L3.4,42.2z"/>
	</g>
</g>
<polyline class="st4" points="64.9,44.4 36.9,72.4 8.8,44.4 "/>
<line class="st5" x1="32.5" y1="76.7" x2="33.8" y2="75.4"/>
<line class="st5" x1="29" y1="73.1" x2="31.4" y2="70.6"/>
<line class="st5" x1="25.5" y1="69.6" x2="26.8" y2="68.4"/>
<line class="st5" x1="22.1" y1="66.2" x2="24.5" y2="63.8"/>
<line class="st5" x1="18.5" y1="62.6" x2="19.7" y2="61.4"/>
<line class="st5" x1="14.9" y1="59.1" x2="17.4" y2="56.6"/>
<line class="st5" x1="11.5" y1="55.6" x2="12.7" y2="54.4"/>
<line class="st5" x1="8.1" y1="52.2" x2="10.5" y2="49.7"/>
<line class="st5" x1="4.5" y1="48.6" x2="5.7" y2="47.4"/>
<line class="st5" x1="69.3" y1="48.6" x2="68.1" y2="47.4"/>
<line class="st5" x1="65.7" y1="52.1" x2="63.3" y2="49.7"/>
<line class="st5" x1="62.3" y1="55.6" x2="61.1" y2="54.4"/>
<line class="st5" x1="58.8" y1="59" x2="56.4" y2="56.6"/>
<line class="st5" x1="55.3" y1="62.6" x2="54" y2="61.4"/>
<line class="st5" x1="51.7" y1="66.2" x2="49.3" y2="63.7"/>
<line class="st5" x1="48.3" y1="69.6" x2="47" y2="68.4"/>
<line class="st5" x1="44.8" y1="73" x2="42.4" y2="70.6"/>
<line class="st5" x1="41.2" y1="76.6" x2="40" y2="75.4"/>
<g>
	<path class="st2" d="M66,66.4c-0.7,0-1.3-1.4-1.6-2l-14.5-32c0,0-2.3-3.3-7-3.3h-0.2L42.7,29C38.9,20.4,32.4,5.6,32.4,5.6l-0.2-0.3
		L42,5.1l24.1,59.2c0.2,0.6,0.5,1.5,0.3,1.9C66.3,66.4,66.2,66.4,66,66.4L66,66.4z"/>
	<path class="st3" d="M41.8,5.4l24,59.1c0,0,0.7,1.7,0.2,1.7c0,0,0,0,0,0c-0.6,0-1.3-1.8-1.3-1.8l-14.5-32c0,0-2.3-3.5-7.2-3.5
		c0,0,0,0,0,0C39.1,20.3,32.6,5.5,32.6,5.5L41.8,5.4 M42.1,4.9l-0.3,0L32.6,5l-0.8,0l0.3,0.7c0.1,0.1,6.5,14.9,10.2,23.4l0.1,0.3
		l0.3,0c4.4,0,6.6,2.9,6.8,3.2l14.5,31.9c0.4,0.9,1,2.1,1.8,2.1c0,0,0,0,0,0c0.2,0,0.4-0.1,0.6-0.3c0.1-0.1,0.4-0.5-0.3-2.1
		l-24-59.1L42.1,4.9L42.1,4.9z"/>
</g>
<g>
	<path class="st2" d="M7.7,66.1c-0.1,0-0.3-0.1-0.3-0.2c-0.2-0.4,0.1-1.3,0.3-1.9L31.8,4.8l9.7,0.1l-0.2,0.3c0,0-6.5,14.8-10.2,23.4
		L31,28.8l-0.2,0c-4.7,0-7,3.3-7,3.4L9.3,64.1C9,64.7,8.4,66.1,7.7,66.1L7.7,66.1z"/>
	<path class="st3" d="M31.9,5.1l9.1,0.1c0,0-6.5,14.8-10.3,23.4c0,0,0,0,0,0c-4.9,0-7.2,3.5-7.2,3.5L9.1,64c0,0-0.8,1.8-1.3,1.8
		c0,0,0,0,0,0c-0.5,0,0.2-1.7,0.2-1.7L31.9,5.1 M31.6,4.5l-0.1,0.3l-24,59.1c-0.6,1.6-0.4,2-0.3,2.1c0.1,0.2,0.3,0.3,0.5,0.3
		c0.8,0,1.4-1.2,1.8-2.1L24,32.3c0.3-0.4,2.4-3.2,6.8-3.2l0.3,0l0.2-0.3C35,20.3,41.5,5.5,41.5,5.4l0.3-0.7l-0.8,0L32,4.6L31.6,4.5
		L31.6,4.5z"/>
</g>
<circle class="st6" cx="36.8" cy="4.9" r="4.9"/>
<path class="st3" d="M36.8,7.3c1.3,0,2.4-1.1,2.4-2.4s-1.1-2.4-2.4-2.4s-2.4,1.1-2.4,2.4S35.5,7.3,36.8,7.3"/>
</svg>
